<?xml version="1.0" standalone="no"?>
<!DOCTYPE svg PUBLIC "-//W3C//DTD SVG 20010904//EN"
 "http://www.w3.org/TR/2001/REC-SVG-20010904/DTD/svg10.dtd">
<svg version="1.0" xmlns="http://www.w3.org/2000/svg"
 width="600.000000pt" height="600.000000pt" viewBox="0 0 600.000000 600.000000"
 preserveAspectRatio="xMidYMid meet">
<metadata>
Created by potrace 1.11, written by Peter Selinger 2001-2013
</metadata>
<g transform="translate(0.000000,600.000000) scale(0.100000,-0.100000)"
fill="#000000" stroke="none">
<path d="M2470 5403 c-155 -12 -431 -70 -524 -111 -87 -39 -169 -150 -199
-272 l-14 -54 -119 -61 c-141 -72 -231 -128 -369 -232 -136 -103 -339 -312
-472 -488 -68 -90 -213 -308 -213 -320 0 -5 -7 -16 -15 -25 -22 -24 -197 -381
-250 -510 -96 -232 -198 -538 -218 -655 -3 -16 -15 -75 -26 -130 -39 -199 -46
-275 -45 -495 1 -187 5 -230 34 -384 30 -153 87 -260 214 -401 168 -186 440
-340 821 -467 112 -37 392 -112 460 -123 17 -3 64 -12 105 -20 41 -8 89 -17
105 -19 17 -2 73 -9 125 -15 202 -25 273 -28 505 -25 229 3 266 5 370 18 25 3
66 9 93 12 26 3 54 7 62 9 145 27 197 38 260 55 41 12 84 23 94 25 98 22 341
118 439 172 88 49 248 154 284 185 18 17 26 18 55 9 75 -23 95 -27 143 -25
145 5 216 48 350 209 27 33 58 69 68 80 80 87 239 339 319 505 87 180 171 429
194 575 3 22 7 42 9 45 2 3 6 33 10 65 3 33 8 71 11 85 10 41 12 349 4 430
-19 182 -44 320 -81 447 -11 37 -26 88 -33 113 -8 25 -32 90 -54 145 l-40 100
21 17 c24 18 223 119 272 138 98 37 243 17 449 -62 162 -63 207 -66 246 -20
68 81 99 350 60 507 -32 126 -105 237 -179 274 -101 50 -270 60 -446 26 -246
-47 -527 -175 -693 -317 -18 -15 -36 -28 -40 -28 -4 0 -19 18 -34 39 -71 100
-283 315 -412 419 -213 171 -445 304 -702 402 -90 34 -248 84 -300 94 -10 2
-54 11 -97 20 -43 9 -101 19 -130 22 -28 3 -63 8 -77 10 -33 6 -343 11 -400 7z"/>
</g>
</svg>
