<?xml version="1.0" standalone="no"?>
<!DOCTYPE svg PUBLIC "-//W3C//DTD SVG 20010904//EN"
 "http://www.w3.org/TR/2001/REC-SVG-20010904/DTD/svg10.dtd">
<svg version="1.0" xmlns="http://www.w3.org/2000/svg"
 width="600.000000pt" height="600.000000pt" viewBox="0 0 600.000000 600.000000"
 preserveAspectRatio="xMidYMid meet">
<metadata>
Created by potrace 1.11, written by Peter Selinger 2001-2013
</metadata>
<g transform="translate(0.000000,600.000000) scale(0.100000,-0.100000)"
fill="#000000" stroke="none">
<path d="M2500 5404 c-176 -12 -472 -75 -560 -119 -25 -13 -62 -40 -83 -61
-45 -46 -103 -158 -112 -217 -7 -43 -7 -44 -97 -87 -574 -275 -1024 -807
-1354 -1598 -215 -516 -316 -1007 -286 -1393 13 -174 44 -339 76 -411 66 -147
198 -301 358 -416 328 -236 922 -427 1538 -494 147 -16 562 -15 705 1 498 55
902 190 1204 402 l113 79 56 -16 c38 -11 80 -15 136 -12 136 7 193 44 345 223
369 433 570 919 601 1450 20 347 -40 700 -172 1025 l-39 95 23 19 c13 10 84
48 158 85 l135 66 105 0 c115 -1 158 -10 325 -75 134 -52 175 -60 211 -45 56
24 96 136 109 305 11 142 -27 307 -94 404 -45 64 -73 85 -151 112 -137 48
-364 30 -595 -47 -189 -62 -380 -164 -488 -258 -20 -18 -41 -31 -46 -29 -4 1
-36 38 -71 81 -142 180 -374 388 -590 529 -120 79 -365 203 -490 249 -186 68
-386 117 -560 138 -99 12 -330 20 -410 15z m-346 -558 c121 -61 237 -175 473
-461 323 -391 562 -742 818 -1200 80 -143 299 -586 349 -706 l28 -66 -40 -79
c-79 -157 -150 -265 -268 -404 -94 -110 -149 -163 -258 -244 -403 -301 -917
-495 -1501 -566 -433 -53 -1010 -12 -1220 86 -61 29 -156 113 -223 197 -79 99
-118 179 -144 297 -20 95 -23 131 -22 365 0 225 3 276 22 383 50 271 118 504
227 772 317 780 730 1285 1278 1564 174 88 234 107 330 103 65 -3 88 -9 151
-41z"/>
</g>
</svg>
